<svg width="24" height="24" viewBox="0 0 24 24" fill="none" xmlns="http://www.w3.org/2000/svg">
    <path fill-rule="evenodd" clip-rule="evenodd" d="M6.02818 4.72616C5.69271 4.39076 5.1488 4.39076 4.81333 4.72616L4.72671 4.81276C4.39124 5.14816 4.39125 5.69195 4.72672 6.02735L10.703 12.0024L4.72572 17.9784C4.39025 18.3138 4.39025 18.8576 4.72572 19.193L4.81234 19.2796C5.14781 19.615 5.69172 19.615 6.02719 19.2796L12.0045 13.3036L17.9726 19.2704C18.3081 19.6058 18.852 19.6058 19.1874 19.2704L19.2741 19.1838C19.6095 18.8484 19.6095 18.3046 19.2741 17.9692L13.3059 12.0024L19.2731 6.03649C19.6085 5.70109 19.6085 5.15731 19.2731 4.82191L19.1864 4.7353C18.851 4.39991 18.3071 4.39991 17.9716 4.73531L12.0045 10.7012L6.02818 4.72616Z" fill="#303441"/>
</svg>
